<svg id="Layer_1" data-name="Layer 1" xmlns="http://www.w3.org/2000/svg" viewBox="0 0 837.31 579.5"><defs><style>.cls-1{fill:red;}.cls-2{fill:#191918;}</style></defs><polygon points="400.95 0 326.05 161.5 475.85 161.5 400.95 0"/><polygon class="cls-1" points="400.95 46 326.05 207.5 475.85 207.5 400.95 46"/><path d="M271.16,447.6V423.22H375.81c13.05,0,20.35-7.3,20.35-18.24,0-11.91-7.3-18.05-20.35-18.05H311.68c-26.31,0-42.63-16.71-42.63-39.75,0-22.46,15.17-39.17,43-39.17H412.29V332.4H312.06c-11.14,0-17.66,6.53-17.66,17.09s6.72,16.89,17.47,16.89h63.94c28.22,0,43.39,13.25,43.39,40.32,0,23.43-14.21,40.9-43.39,40.9Z" transform="translate(-269.05 -37.5)"/><path d="M482.17,408.82V385.2h56.07c17.08,0,27.26-10.75,27.26-26.5,0-16.13-10.18-26.3-27.26-26.3H464.31V447.6H440.12V308h98.12c32.25,0,51.07,19.4,51.07,49.92,0,30.15-18.82,50.89-51.07,50.89Z" transform="translate(-269.05 -37.5)"/><path d="M897.85,447.6l-20.93-35.14h-66l11.52-19.77h42.82L834.1,340.46,770.74,447.6H742.9L823.16,314c2.88-4.8,6.53-7.88,11.9-7.88s8.83,3.08,11.71,7.88L927.22,447.6Z" transform="translate(-269.05 -37.5)"/><path class="cls-2" d="M1071.8,447.6l-35.33-38.78H984.25V387.31h58.17c17.47,0,26.69-10,26.69-28s-10-26.88-26.69-26.88h-76V447.6H942.2V308h100.22c31.87,0,50.69,19.78,50.69,50.88,0,23-10.75,39.36-28.8,46.28l42,42.43Z" transform="translate(-269.05 -37.5)"/><rect class="cls-1" x="361.93" y="328.41" width="77.38" height="20.54"/><rect x="356.95" y="385.5" width="88" height="24.61"/><rect x="356.29" y="270.53" width="88" height="24.61"/><rect x="363.45" y="430.5" width="25" height="149"/><rect class="cls-1" x="388.45" y="430.5" width="25" height="149"/><rect x="413.45" y="430.5" width="25" height="149"/><polygon points="400.95 90 326.05 251.5 475.85 251.5 400.95 90"/></svg>